HIERARCHY
ROOT Hips
{
  OFFSET 3.13124 94.3669 -3.18751
  CHANNELS  6 Xposition Yposition Zposition Zrotation Xrotation Yrotation
  JOINT LeftUpLeg
  {
    OFFSET 8.64259 1.95398 -2.38835
    CHANNELS 3 Zrotation Xrotation Yrotation
    JOINT LeftLeg
    {
      OFFSET 43.7702 0 0
      CHANNELS 3 Zrotation Xrotation Yrotation
      JOINT LeftFoot
      {
        OFFSET 40.6238 0 0
        CHANNELS 3 Zrotation Xrotation Yrotation
        JOINT LeftToeBase
        {
          OFFSET 12.7242 0 0
          CHANNELS 3 Zrotation Xrotation Yrotation
          End Site
          {
            OFFSET 0 0 0
          }
        }
      }
    }
  }
  JOINT RightUpLeg
  {
    OFFSET -8.2249 1.95398 -2.59336
    CHANNELS 3 Zrotation Xrotation Yrotation
    JOINT RightLeg
    {
      OFFSET 43.5653 0 0
      CHANNELS 3 Zrotation Xrotation Yrotation
      JOINT RightFoot
      {
        OFFSET 40.6238 0 0
        CHANNELS 3 Zrotation Xrotation Yrotation
        JOINT RightToeBase
        {
          OFFSET 12.7242 0 0
          CHANNELS 3 Zrotation Xrotation Yrotation
          End Site
          {
            OFFSET 0 0 0
          }
        }
      }
    }
  }
  JOINT Spine
  {
    OFFSET 0.165834 0.87714 6.61349
    CHANNELS 3 Zrotation Xrotation Yrotation
    JOINT Spine1
    {
      OFFSET 7.38962 1.71661e-005 0
      CHANNELS 3 Zrotation Xrotation Yrotation
      JOINT Spine2
      {
        OFFSET 11.9445 1.14441e-005 0
        CHANNELS 3 Zrotation Xrotation Yrotation
        JOINT Spine3
        {
          OFFSET 14.7254 4.19617e-005 0
          CHANNELS 3 Zrotation Xrotation Yrotation
          JOINT Spine4
          {
            OFFSET 10.9679 0 0
            CHANNELS 3 Zrotation Xrotation Yrotation
            JOINT RightShoulder
            {
              OFFSET 2.46616 -1.6653 3.69651
              CHANNELS 3 Zrotation Xrotation Yrotation
              JOINT RightArm
              {
                OFFSET 13.0012 0 0
                CHANNELS 3 Zrotation Xrotation Yrotation
                JOINT RightForeArm
                {
                  OFFSET 28.7848 1.52588e-005 0
                  CHANNELS 3 Zrotation Xrotation Yrotation
                  JOINT RightHand
                  {
                    OFFSET 26.5688 1.52588e-005 0
                    CHANNELS 3 Zrotation Xrotation Yrotation
                    End Site
                    {
                      OFFSET 0 0 0
                    }
                  }
                }
              }
            }
            JOINT LeftShoulder
            {
              OFFSET 2.38034 -1.29275 -3.75231
              CHANNELS 3 Zrotation Xrotation Yrotation
              JOINT LeftArm
              {
                OFFSET 16.3182 6.10352e-005 0
                CHANNELS 3 Zrotation Xrotation Yrotation
                JOINT LeftForeArm
                {
                  OFFSET 27.0901 0 0
                  CHANNELS 3 Zrotation Xrotation Yrotation
                  JOINT LeftHand
                  {
                    OFFSET 24.5451 1.52588e-005 0
                    CHANNELS 3 Zrotation Xrotation Yrotation
                    End Site
                    {
                      OFFSET 0 0 0
                    }
                  }
                }
              }
            }
            JOINT Neck
            {
              OFFSET 5.0226 -0.0266342 0
              CHANNELS 3 Zrotation Xrotation Yrotation
              JOINT Head
              {
                OFFSET 6.69363 2.86102e-005 0
                CHANNELS 3 Zrotation Xrotation Yrotation
                End Site
                {
                  OFFSET 0 0 0
                }
              }
            }
          }
        }
      }
    }
  }
}
MOTION
Frames:	7
Frame Time:	0.0333333
63.3333 89.2354 16.5723 -55.0096 84.259 -118.078 -176.143 19.3672 83.0002 -37.4764 15.8305 5.49009 77.7488 11.5709 5.05783 28.7808 3.81713e-006 1.13712e-005 -169.087 64.5955 74.3777 -95.0497 36.9239 1.18646 9.9214 29.0248 44.2474 28.7808 1.37703e-005 1.95743e-005 0.259026 6.81639 -89.1891 13.2794 1.31755 -1.14249 1.60857 1.265 -1.19947 -20.9302 1.60685 -0.692854 -0.917515 1.60684 -0.692856 98.2489 -13.2167 -93.1198 -7.45421 28.1886 -12.0543 -3.05074 5.37976 -4.94979 7.14088 0.937466 9.07244 -79.8765 -25.8269 92.6905 14.8052 -29.4344 -11.4927 2.27681 0.647051 -3.31059 7.64971 0.454375 1.70501 1.2677 12.0321 1.2884 -15.3415 10.8121 8.23648 
64.1947 88.7006 16.8756 -74.2909 77.3254 -100.968 -177.995 20.0212 79.9391 -39.788 16.7485 7.80726 77.891 11.7846 5.13352 28.7808 3.81713e-006 1.13712e-005 -170.71 58.8868 75.1465 -85.242 26.9401 0.590342 13.0961 35.4379 50.1383 28.7808 1.37703e-005 1.95743e-005 0.299958 6.80404 -88.9788 13.3081 1.45992 -0.839118 1.63767 1.42157 -0.902564 -20.9036 1.64449 -0.361464 -0.890968 1.64447 -0.361456 97.8288 -13.4816 -94.2104 -6.05737 27.3866 -11.17 -3.06081 5.13939 -4.94821 7.70397 0.799462 6.34086 -79.8257 -29.3206 93.0324 15.2886 -29.1889 -10.0821 2.32073 2.83772 -3.35736 9.2076 0.454068 1.04141 -0.211286 15.8383 5.36614 -13.8198 14.3345 6.98648 
65.0628 88.5993 16.9923 -80.7901 69.9007 -96.4215 -179.989 19.5152 78.0196 -40.6436 21.2818 9.68183 78.2262 10.759 4.70509 28.7808 3.81713e-006 1.13712e-005 -170.774 55.4443 74.0011 -78.3796 9.29193 -0.467616 32.8017 17.532 18.2175 28.7808 1.37703e-005 1.95743e-005 0.449419 6.84749 -89.1416 13.2115 1.58708 -0.463451 1.54145 1.56513 -0.532903 -21.0015 1.6505 0.0352902 -0.988829 1.65049 0.0352772 97.2233 -15.2886 -95.3502 -5.51165 26.9487 -10.2701 -3.096 4.30225 -4.94077 6.29305 0.673151 6.48867 -79.959 -31.8414 92.9204 15.3238 -28.6208 -8.2282 2.30563 2.0986 -3.34125 10.7246 0.583636 1.41542 -1.38278 18.5362 7.64731 -13.0287 16.8859 6.76222 
65.8164 88.8383 16.7269 -85.1225 62.2188 -92.9897 178.468 17.8962 77.1775 -41.4587 26.3119 12.0838 77.6348 10.6592 4.72442 28.7808 3.81713e-006 1.13712e-005 -172.78 49.4186 74.9244 -71.223 1.59813 -0.753907 41.2222 15.9844 14.5393 28.7808 1.37703e-005 1.95743e-005 0.63903 6.91695 -89.339 13.0706 1.74341 -0.37259 1.40079 1.72515 -0.448545 -21.1438 1.77576 0.165822 -1.13109 1.77574 0.165805 96.5018 -17.5768 -96.5587 -6.07494 26.6532 -8.09212 -3.23543 0.957129 -4.91609 7.94805 0.879789 6.97771 -80.3355 -33.9615 92.3564 15.3775 -28.2313 -6.91971 2.43132 7.97044 -3.47414 11.3102 1.73716 10.7714 -3.08539 19.324 8.78931 -11.5091 17.7713 6.75081 
66.3091 89.0033 16.2807 -86.7584 54.8581 -91.6769 176.923 16.8638 76.572 -43.3605 31.0285 15.2407 77.1061 10.4772 4.70565 28.7808 3.81713e-006 1.13712e-005 -174.414 44.6919 75.7896 -65.9778 -9.62644 -1.27054 48.8566 14.3603 11.3471 28.7808 1.37703e-005 1.95743e-005 0.832127 6.87359 -89.5641 13.1567 1.94959 -0.612213 1.487 1.92073 -0.697486 -21.0599 2.04334 0.00248333 -1.04723 2.04334 0.00246849 95.9922 -18.0786 -97.7109 -5.52049 25.8867 -5.37959 -3.40033 -2.98364 -4.95602 7.54536 0.689044 4.91749 -80.6393 -37.1146 92.0204 16.7499 -27.7645 -3.88849 2.30816 2.21327 -3.34414 10.0703 0.685048 2.74663 -4.85796 19.1443 11.5186 -10.2872 17.6593 5.04896 
66.7726 89.0155 15.5363 -87.445 47.7691 -90.9726 175.366 16.2675 76.6018 -46.2365 35.7092 18.6793 78.1323 9.50292 4.21582 28.7808 3.81713e-006 1.13712e-005 -175.631 41.3566 76.8284 -63.6289 -18.9005 -1.74175 56.0078 10.2146 7.0543 28.7808 1.37703e-005 1.95743e-005 1.00508 6.80236 -89.758 13.298 2.16788 -0.75468 1.62851 2.13247 -0.848893 -20.9209 2.29522 -0.0713547 -0.908263 2.29519 -0.071377 95.6523 -19.442 -98.1004 -4.90295 26.4204 -2.31402 -3.69229 -3.18579 -10.0463 9.50301 0.852666 4.88471 -80.0699 -38.6205 93.1311 16.7653 -26.9373 -1.25019 2.27317 0.459926 -3.3067 9.0384 0.0826231 -2.62543 -4.64755 18.5632 11.9643 -10.4095 17.0799 4.1226 
67.2933 89.1725 14.5152 -88.1622 40.6357 -90.719 174.85 15.9912 76.9209 -50.0288 41.0935 21.6676 77.2377 7.88889 3.58546 28.7808 3.81713e-006 1.13712e-005 -176.434 38.2243 77.4309 -62.6214 -25.9843 -2.14366 58.5493 5.05357 3.41477 28.7808 1.37703e-005 1.95743e-005 1.12571 6.78746 -89.7243 13.3292 2.36754 -0.687119 1.66021 2.33498 -0.790706 -20.8925 2.46451 0.0566295 -0.879827 2.46451 0.0566079 95.126 -21.7409 -98.6902 -3.956 26.0438 -2.51762 -3.53765 -2.08687 -9.77534 9.99549 0.742237 3.21621 -79.0244 -39.055 94.969 15.9185 -26.1208 0.512793 2.25449 -0.501067 -3.28679 8.64992 -0.172803 -5.22109 -2.5798 17.7919 10.5839 -11.6745 16.2017 3.8768 
